<svg width="512" height="512" viewBox="0 0 512 512" fill="none" xmlns="http://www.w3.org/2000/svg">
<path d="M57.424 99.0561L123.045 119.313L75.5149 165.5L57.424 99.0561Z" fill="#FFFFF0"/>
<path d="M30.6996 29.8319L112.489 61.171L59.3161 112.841L30.6996 29.8319Z" fill="#FF0000"/>
<path d="M114.916 61.0899L177.063 77.6734L129.029 120.568L66.8823 103.984L114.916 61.0899Z" fill="#FFFFF0"/>
<rect width="132.541" height="27.698" transform="matrix(0.726276 -0.687403 0.685075 0.728473 355.433 450.608)" fill="#C8C8C8"/>
<ellipse cx="64.9654" cy="45.2704" rx="64.9654" ry="45.2704" transform="matrix(0.73305 -0.680174 0.677828 0.735221 355.383 445.433)" fill="#C8C8C8"/>
<rect width="131.093" height="387.723" transform="matrix(0.707082 -0.707131 0.704861 0.709346 81.3877 175.417)" fill="#FF9933"/>
<path d="M498.687 412.147C496.683 401.692 492.274 390.835 487.263 383.597C485.76 381.285 414.113 309.005 328.237 222.752L171.915 66.1302L161.995 62.8127C156.584 61.0032 131.132 52.6594 105.479 44.2151C79.8262 35.8713 51.4679 26.5222 42.4494 23.5064C24.3121 17.5753 22.5084 17.5753 19.402 23.3053C17.6985 26.2206 14.5921 15.7658 50.4658 125.14C58.0815 148.362 64.5949 168.568 64.8955 169.975C65.2963 171.584 121.712 228.885 223.521 330.92L381.546 489.251L390.064 493.373C410.606 503.225 432.952 503.024 452.492 492.87C458.304 489.955 462.513 486.336 473.836 475.077C485.961 462.913 488.366 459.797 491.673 453.061C493.777 448.839 496.082 442.908 496.883 439.993C498.386 434.564 499.489 416.469 498.687 412.147ZM482.854 432.353C480.249 444.315 475.339 452.358 462.813 464.924C450.688 477.087 444.476 481.008 432.15 484.124C419.524 487.341 403.692 484.527 392.569 477.087C389.763 475.177 382.548 468.844 376.636 462.913L365.814 452.056L407.7 410.035C430.848 386.814 450.187 367.914 450.789 367.914C452.592 367.914 473.736 390.231 476.541 395.057C483.456 407.12 485.56 419.485 482.854 432.353ZM397.479 398.575C397.479 398.575 355.392 440.294 354.891 440.294C354.39 440.294 294.267 380.279 221.117 306.995L88.2435 173.594L130.13 131.574C153.277 108.352 173.118 89.4526 173.118 89.4526C173.118 89.4526 439.165 354.946 439.165 356.052C439.165 356.555 397.479 398.575 397.479 398.575ZM78.3231 160.023C77.9223 159.621 72.4109 143.335 65.8976 123.733L61.7049 110.764C61.7049 110.764 76.1095 104.481 91.7667 90.6586C107.424 76.836 111.006 62.8127 111.808 62.8127C112.609 62.8127 123.707 66.7833 131.849 69.2964L160.893 78.5956L119.909 119.711C97.3622 142.33 78.7239 160.425 78.3231 160.023ZM87.3827 84.3756C76.1095 94.4284 60.4273 103.853 59.826 103.853C58.9242 103.853 37.8399 39.2893 38.5413 38.6861C39.1426 38.1834 104.292 59.1683 104.292 59.872C104.292 60.2741 97.4031 75.44 87.3827 84.3756Z" fill="black"/>
<path d="M280.112 238.33C200.114 157.691 197.108 154.745 194.102 154.745C190.595 154.745 187.589 157.775 187.589 161.395C187.589 163.078 203.371 179.408 270.509 247.084C350.924 328.228 353.429 330.669 356.519 330.669C360.444 330.669 362.949 328.312 362.949 324.608C362.949 322.083 355.851 314.76 280.112 238.33Z" fill="black"/>
<path d="M247.613 272.797C202.039 227.107 164.257 189.396 163.586 189.06C162.246 188.22 158.811 188.808 157.052 190.236C155.46 191.496 154.623 194.184 155.209 196.451C155.46 197.459 193.075 235.758 238.649 281.448C313.041 356.114 321.837 364.597 324.099 364.597C327.45 364.597 330.382 361.573 330.382 358.213C330.382 356.03 319.994 345.363 247.613 272.797Z" fill="black"/>
</svg>
